# xmcd CD database file
# Copyright (C) 1997 Ti Kan
# 
# Track frame offsets:
#     187
#     13022
#     23445
#     33762
#     45252
#     55420
#     67140
#     79570
# 
# Disc length: 1224 seconds
# 
# Revision: 1
# Processed by: cddbd v1.4b41PL1 Copyright (c) Steve Scherf et al.
# Submitted via: DiscPlay 4.0.3
# 
DISCID=5404c608
DTITLE=Jerry Reed - East Bound And Down
DYEAR=1900
DGENRE=
TTITLE0=East Bound And Down
TTITLE1=The Bandit
TTITLE2=The Legend
TTITLE3=Framed
TTITLE4=You Took All The Rambling Out Of Me
TTITLE5=Rainbow Ride
TTITLE6=Just To Satisfy You
TTITLE7=Don't Think Twice It's Alright
EXTD=
EXTT0=
EXTT1=
EXTT2=
EXTT3=
EXTT4=
EXTT5=
EXTT6=
EXTT7=
PLAYORDER=
